<svg version="1.2" xmlns="http://www.w3.org/2000/svg" viewBox="0 0 1080 1080" width="1080" height="1080">
	<style>
		.s0 { fill: #f4ecd8 } 
		.s1 { fill: #e86b30 } 
		.s2 { fill: #0f0e08 } 
	</style>
	<g id="tape">
		<path id="Path 1" class="s0" d="m507.5 100.11c-4.95 0.47-16.65 1.8-26 2.97-9.35 1.17-17.23 2.27-17.5 2.44-0.27 0.17-6.35 1.5-13.5 2.96-7.15 1.45-18.4 4.23-25 6.18-6.6 1.94-16.27 5.04-21.5 6.88-5.23 1.84-13.55 4.9-18.5 6.79-4.95 1.89-14.4 5.92-21 8.95-6.6 3.03-15.6 7.41-20 9.72-4.4 2.31-12.05 6.57-17 9.48-4.95 2.91-13.95 8.57-20 12.58-6.05 4.01-11.45 7.67-12 8.12-0.55 0.45-5.05 3.88-10 7.6-4.95 3.73-12.59 9.7-16.98 13.25-4.39 3.56-15.37 13.67-24.39 22.47-9.02 8.8-21.86 22.53-28.54 30.5-6.68 7.98-15.33 18.77-19.22 24-3.88 5.23-10.67 15.13-15.08 22-4.41 6.88-11.83 19.48-16.49 28-4.66 8.52-10.53 20-13.03 25.5-2.51 5.5-5.78 12.93-7.28 16.5-1.5 3.57-4.5 11.45-6.67 17.5-2.17 6.05-6.2 18.43-8.96 27.5-2.76 9.07-6.13 21.45-7.49 27.5-1.36 6.05-3.56 17.98-4.9 26.5-1.33 8.52-2.9 18.43-3.49 22-0.58 3.57-1.48 12.57-1.98 20-0.51 7.42-0.94 22.05-0.94 32.5-0.01 10.45 0.41 24.63 0.94 31.5 0.52 6.88 1.41 15.42 1.98 19 0.57 3.58 2.14 13.7 3.5 22.5 1.35 8.8 3.76 21.63 5.35 28.5 1.59 6.88 4.48 17.9 6.43 24.5 1.95 6.6 5.78 18.3 8.51 26 2.73 7.7 6.2 16.92 7.71 20.5 1.5 3.58 4.07 9.42 5.71 13 1.64 3.58 5.71 11.9 9.05 18.5 3.34 6.6 8.54 16.27 11.55 21.5 3.01 5.23 9.52 15.58 14.46 23 4.93 7.42 12.17 17.77 16.08 23 3.91 5.23 7.62 9.95 8.24 10.5 0.63 0.55 3.53 3.92 6.45 7.5 2.93 3.58 7.13 8.52 9.34 11 2.21 2.48 9.9 10.3 17.08 17.38 7.18 7.09 18.01 17.03 24.06 22.09 6.05 5.06 15.5 12.59 21 16.72 5.5 4.14 13.15 9.55 17 12.02 3.85 2.48 9.48 6.08 12.5 7.99 3.02 1.92 8.88 5.52 13 8 4.13 2.48 10.42 5.97 14 7.75 3.58 1.79 12.8 6.18 20.5 9.76 7.7 3.59 17.38 7.85 21.5 9.47 4.13 1.62 11.77 4.45 17 6.29 5.23 1.83 15.01 4.95 21.75 6.93 6.74 1.98 18.21 4.91 25.5 6.5 7.29 1.6 18.2 3.61 24.25 4.47 6.05 0.85 15.27 2.01 20.5 2.57 5.23 0.55 16.7 1.53 25.5 2.16 9.41 0.68 22.39 0.89 31.5 0.49 8.52-0.36 22.03-1.34 30-2.17 7.97-0.83 19-2.17 24.5-2.98 5.5-0.82 16.3-2.85 24-4.53 7.7-1.67 16.03-3.66 18.5-4.41 2.47-0.75 9.9-3 16.5-5.01 6.6-2.01 18.75-6.3 27-9.55 8.25-3.24 23.55-10.14 34-15.33 10.45-5.19 24.85-13 32-17.35 7.15-4.34 15.92-9.87 19.5-12.28 3.58-2.42 10.1-7.08 14.5-10.38 4.4-3.29 14.97-11.93 23.5-19.19 8.53-7.26 21.15-18.98 28.05-26.06 6.9-7.07 16.16-17.12 20.57-22.35 4.41-5.23 10.35-12.65 13.18-16.5 2.84-3.85 5.54-7.45 6-8 0.46-0.55 5.13-7.3 10.38-15 5.25-7.7 12.89-19.85 16.97-27 4.08-7.15 10.17-18.62 13.53-25.5 3.36-6.87 8.13-17.45 10.59-23.5 2.46-6.05 6.75-17.52 9.54-25.5 2.79-7.98 6.73-20.35 8.76-27.5 2.02-7.15 4.53-17.05 5.58-22 1.05-4.95 3-15.75 4.35-24 1.34-8.25 2.9-17.92 3.47-21.5 0.57-3.58 1.48-11.45 2.03-17.5 0.55-6.05 0.99-22.02 0.99-35.5 0-13.48-0.44-29.67-0.98-36-0.53-6.32-1.41-14.2-1.95-17.5-0.55-3.3-1.94-12.3-3.11-20-1.17-7.7-3.47-19.85-5.11-27-1.64-7.15-4.57-18.62-6.5-25.5-1.93-6.87-5.01-16.77-6.86-22-1.84-5.23-4.68-12.87-6.31-17-1.63-4.12-5.31-12.9-8.19-19.5-2.88-6.6-7.19-15.82-9.59-20.5-2.4-4.68-5.61-10.75-7.13-13.5-1.52-2.75-4.54-7.93-6.71-11.5-2.16-3.57-6.84-11-10.4-16.5-3.56-5.5-10.3-15.18-14.99-21.5-4.68-6.32-11.48-15.07-15.09-19.43-3.61-4.36-10.78-12.46-15.93-18-5.15-5.54-12.8-13.37-17-17.39-4.2-4.03-11.92-11.04-17.14-15.57-5.22-4.54-15.12-12.5-22-17.71-6.87-5.2-17-12.43-22.5-16.07-5.5-3.64-14.5-9.3-20-12.58-5.5-3.28-12.92-7.43-16.5-9.21-3.58-1.79-12.35-5.96-19.5-9.26-7.15-3.31-17.05-7.57-22-9.46-4.95-1.9-13.95-5.17-20-7.28-6.05-2.11-16.85-5.45-24-7.42-7.15-1.98-18.74-4.72-25.75-6.11-7.01-1.38-17.59-3.18-23.5-4-5.91-0.82-17.95-2.17-26.75-3-9.31-0.88-24.79-1.46-37-1.38-11.55 0.08-25.05 0.52-30 0.98z"/>
		<path id="Path 2" class="s1" d="m1450.48 971.5c-0.41 1.1-1.63 4.02-2.7 6.5-1.09 2.5-4.92 7.46-8.62 11.16-3.66 3.67-8.46 7.43-10.66 8.37-2.2 0.94-5.13 2.12-6.5 2.62-2.33 0.85-1.99 1.15 5 4.49 5.14 2.46 9.21 5.36 12.94 9.22 3.34 3.47 6.54 8.14 8.33 12.14l2.89 6.5c5.58-11.71 8.58-15.85 12.5-19.65 3.56-3.45 8.38-6.82 12.34-8.64l6.5-2.99c-11.7-5.35-15.73-8.18-19.25-11.81-2.89-2.98-6.26-7.32-7.49-9.66-1.24-2.34-2.76-5.6-3.39-7.25-1.04-2.72-1.21-2.82-1.89-1z"/>
		<path id="Path 5" class="s2" d="m414.5 240.36c-5.5 2.38-15.63 7.39-22.5 11.14-6.88 3.75-16.33 9.32-21 12.37-4.67 3.06-11.65 7.8-15.5 10.53-3.85 2.73-11.95 9.12-18 14.2-6.05 5.07-16.4 14.78-23 21.57-6.6 6.8-13.58 14.2-15.5 16.45-1.92 2.26-4.39 5.18-5.48 6.49-1.09 1.31-3.36 4.19-5.05 6.39-1.69 2.2-6 8.27-9.58 13.5-3.58 5.23-9.11 13.77-12.3 19-3.18 5.23-9.07 16.25-13.08 24.5-4.02 8.25-8.87 19.05-10.77 24-1.91 4.95-5.08 14.18-7.05 20.5-1.98 6.32-4.52 15.55-5.66 20.5-1.14 4.95-2.76 12.37-3.6 16.5-0.84 4.12-2.41 13.8-3.51 21.5-1.09 7.7-2.3 20.56-2.7 28.59l-0.72 14.58c5.04 4.91 7.51 6.33 8.75 6.33 1.24-0.01 3.6-0.82 5.25-1.81 1.99-1.2 3.26-2.97 3.76-5.25 0.42-1.89 0.76-6.82 0.76-10.94 0-4.13 0.46-12.67 1.02-19 0.56-6.33 1.93-16.68 3.04-23 1.11-6.33 2.64-14.2 3.41-17.5 0.76-3.3 2.96-11.4 4.89-18 1.93-6.6 4.84-15.83 6.47-20.5 1.63-4.68 4.72-12.55 6.87-17.5 2.15-4.95 6.52-13.95 9.72-20 3.2-6.05 8.57-15.41 11.94-20.79 3.37-5.39 9.95-14.93 14.62-21.21 4.67-6.27 12.8-16.26 18.05-22.2 5.25-5.94 14.04-14.85 19.52-19.8 5.49-4.95 11.97-10.58 14.4-12.5 2.44-1.93 5.8-4.68 7.48-6.11 1.68-1.44 7.32-5.51 12.55-9.05 5.23-3.53 13.77-8.96 19-12.06 5.23-3.1 16.25-8.88 24.5-12.86 8.25-3.97 15.8-7.94 16.78-8.82 1.13-1.01 1.77-2.98 1.75-5.35-0.02-2.64-0.77-4.49-2.53-6.25-1.38-1.38-3.51-2.49-4.75-2.48-1.24 0.01-6.75 1.96-12.25 4.34zm20.5 45.47c-3.58 1.53-10.55 4.97-15.5 7.65-4.95 2.67-13.73 7.79-19.5 11.37-5.77 3.57-13.88 8.99-18 12.03-4.13 3.04-10.2 7.75-13.5 10.48-3.3 2.72-12.08 11.07-19.5 18.55-7.42 7.48-16.71 17.87-20.63 23.09-3.92 5.23-10.2 14.23-13.96 20-3.76 5.77-9.56 15.9-12.9 22.5-3.33 6.6-7.26 14.7-8.72 18-1.46 3.3-4.01 9.82-5.67 14.5-1.66 4.68-4.37 13.23-6.02 19-1.65 5.77-3.5 12.75-4.11 15.5-0.61 2.75-1.77 9.5-2.58 15-0.81 5.5-1.9 14.27-2.43 19.5-0.53 5.23-1 14-1.05 19.5-0.05 5.5 0.28 10.85 0.74 11.89 0.46 1.04 2.07 2.5 3.58 3.25 1.51 0.75 3.68 1.36 4.83 1.36 1.14 0 3.31-1.24 4.83-2.75 2.71-2.7 2.76-3.02 3.42-18.75 0.37-8.8 1.29-20.27 2.04-25.5 0.75-5.23 2.59-14.68 4.08-21 1.49-6.32 3.81-15.1 5.17-19.5 1.35-4.4 4.52-13.18 7.04-19.5 2.52-6.32 7.29-16.68 10.6-23 3.32-6.32 8.8-15.77 12.18-21 3.38-5.23 8.57-12.65 11.53-16.5 2.95-3.85 7.65-9.66 10.45-12.91 2.79-3.26 9.35-10.07 14.58-15.15 5.23-5.07 13.33-12.33 18-16.12 4.67-3.8 11.42-8.95 15-11.45 3.58-2.5 9.88-6.57 14-9.04 4.13-2.47 10.42-6.09 14-8.03 3.58-1.95 8.98-4.57 12-5.83 3.02-1.26 6.96-3.35 8.75-4.63 2.69-1.94 3.24-2.99 3.22-6.09-0.02-2.06-0.58-4.46-1.25-5.34-0.67-0.87-2.23-2.11-3.47-2.75-1.24-0.64-2.81-1.15-3.5-1.13-0.69 0.01-4.17 1.27-7.75 2.8zm261 19.72c-3.58 0.77-9.2 2.38-12.5 3.58-3.3 1.21-8.47 3.66-11.5 5.45-3.03 1.8-8.42 5.68-12 8.64-3.58 2.95-8.74 8.27-11.47 11.82-2.74 3.55-6.62 9.61-8.64 13.46-2.02 3.85-4 8.12-4.4 9.5-0.4 1.37-1.74 4.75-2.99 7.5-1.24 2.75-4.03 8.82-6.2 13.5-2.16 4.67-6.15 13.34-8.86 19.27-2.72 5.92-5.16 10.77-5.44 10.77-0.28 0-4.55-1.98-9.5-4.4-4.95-2.42-14.17-5.97-20.5-7.89-6.33-1.92-15.55-4.08-20.5-4.79-4.95-0.72-14.85-1.28-22-1.25-7.15 0.03-17.27 0.77-22.5 1.64-5.23 0.86-14 3-19.5 4.74-5.5 1.74-14.05 5.09-19 7.45-4.95 2.36-12.6 6.64-17 9.5-4.4 2.87-10.25 7.08-13 9.34-2.75 2.27-8.33 7.49-12.4 11.62-4.07 4.12-9.7 10.65-12.51 14.5-2.81 3.85-6.28 8.8-7.71 11-1.42 2.2-4.51 7.82-6.86 12.5-2.35 4.68-5.52 11.87-7.04 16-1.51 4.12-4.02 12.9-5.57 19.5-2.55 10.87-2.82 13.79-2.86 31-0.04 16.34 0.28 20.54 2.32 30 1.3 6.05 3.39 14.15 4.65 18 1.25 3.85 3.85 10.37 5.78 14.5 1.92 4.12 5.2 10.42 7.28 14 2.09 3.58 6.11 9.65 8.95 13.5 2.84 3.85 9.39 11.23 14.56 16.4 5.18 5.17 13.68 12.43 18.91 16.13 5.23 3.71 12.65 8.32 16.5 10.24 3.85 1.93 9.02 4.43 11.5 5.55 2.48 1.12 9.9 3.61 16.5 5.52 6.6 1.91 15.83 4.03 20.5 4.71 5.61 0.81 13.94 1.03 24.5 0.63 8.8-0.33 18.7-1.23 22-1.99 3.3-0.76 9.6-2.4 14-3.64 4.4-1.24 11.15-3.63 15-5.31 3.85-1.68 9.7-4.62 13-6.52 3.3-1.9 8.7-5.28 12-7.51 3.3-2.23 8.45-6.11 11.45-8.63 2.99-2.52 7.77-6.83 10.6-9.58 2.84-2.75 7.32-7.7 9.97-11 2.65-3.3 6.68-8.92 8.95-12.5 2.27-3.58 5.73-9.42 7.69-13 1.95-3.58 4.95-9.88 6.67-14 1.71-4.13 4.25-12.23 5.63-18 1.39-5.77 3.04-14.1 3.67-18.5 0.69-4.84 0.94-14.32 0.62-24-0.47-14.48-0.9-17.43-4.46-31-2.17-8.25-4.24-15.79-4.61-16.75-0.51-1.3 0.02-2.03 2.07-2.83 1.51-0.59 12.99-5.76 25.5-11.5 12.51-5.73 22.97-10.42 23.25-10.42 0.28 0 6.01-2.67 12.75-5.93 8.46-4.1 14.57-7.9 19.75-12.29 4.13-3.49 9.59-9.25 12.15-12.81 2.55-3.56 6-9.17 7.65-12.47 1.65-3.3 4.26-10.05 5.81-15 2.47-7.9 2.8-10.53 2.77-21.5-0.04-11.43-0.32-13.31-3.3-22-1.78-5.23-4.89-12.43-6.89-16-2.01-3.57-6.16-9.43-9.23-13-3.07-3.57-8.48-8.58-12.02-11.12-3.54-2.55-9.14-6.04-12.44-7.76-3.3-1.72-10.5-4.26-16-5.64-7.07-1.78-12.49-2.48-18.5-2.42-4.67 0.06-11.42 0.73-15 1.49zm-244 50.3c-6.33 3.2-16 8.88-21.5 12.61-5.5 3.74-13.79 10-18.41 13.92-4.63 3.92-11.78 10.49-15.88 14.62-4.11 4.12-8.64 9.07-10.09 11-1.44 1.93-3.25 4.18-4.01 5-0.77 0.82-4.66 6.45-8.66 12.5-4 6.05-9.56 15.39-12.36 20.75-2.8 5.36-6.84 14.36-8.99 20-2.14 5.64-5.04 14.75-6.45 20.25-1.4 5.5-3.01 12.48-3.57 15.5-0.56 3.02-1.48 9.89-2.05 15.25-0.57 5.36-1.03 13.12-1.03 17.25 0 4.12 0.45 8.51 1 9.75 0.56 1.24 2.13 2.81 3.5 3.5 1.38 0.69 3.4 1.25 4.5 1.25 1.1 0 3.24-1.09 4.75-2.42 2.65-2.33 2.77-2.86 3.39-15.25 0.35-7.06 1.36-16.88 2.26-21.83 0.89-4.95 2.24-11.48 2.99-14.5 0.76-3.02 2.56-9.44 3.99-14.25 1.44-4.81 5.14-14.04 8.21-20.5 3.08-6.46 7.68-15.13 10.22-19.25 2.54-4.13 4.91-7.73 5.28-8 0.36-0.27 1.5-1.87 2.53-3.54 1.04-1.67 3.23-4.77 4.88-6.9 1.65-2.12 5.92-7.01 9.5-10.85 3.58-3.84 9.92-9.96 14.09-13.6 4.18-3.63 8.45-7.3 9.5-8.13 1.05-0.84 5.29-3.82 9.41-6.62 4.13-2.79 8.85-5.91 10.5-6.92 1.65-1 7.27-3.92 12.5-6.47 5.23-2.56 10.29-5.39 11.25-6.31 1.02-0.96 1.75-3.13 1.75-5.16 0-2.4-0.79-4.29-2.5-6-1.65-1.65-3.6-2.5-5.75-2.49-1.96 0.01-7.83 2.33-14.75 5.84zm274.96 178.04c-2.1 1.74-2.35 3-3.03 15.75-0.4 7.62-1.47 17.91-2.37 22.86-0.9 4.95-2.11 10.8-2.69 13-0.57 2.2-2.18 7.6-3.58 12-1.39 4.4-4.25 12.05-6.35 17-2.1 4.95-5.76 12.6-8.13 17-2.38 4.4-6.75 11.6-9.71 16-2.97 4.4-7.45 10.48-9.97 13.5-2.51 3.02-8.63 9.56-13.6 14.51-4.97 4.96-13.98 12.71-20.03 17.24-6.79 5.07-16.49 10.99-25.36 15.48-10.73 5.44-14.7 7.96-15.75 10.02-0.88 1.74-1.12 3.72-0.64 5.41 0.41 1.47 1.88 3.51 3.25 4.54 1.38 1.03 3.4 1.86 4.5 1.86 1.1-0.01 3.8-0.75 6-1.64 2.2-0.9 6.92-2.99 10.5-4.66 3.58-1.66 11.67-6.39 18-10.53 6.33-4.13 15.55-11 20.5-15.27 4.95-4.26 11.97-10.84 15.61-14.61 3.63-3.77 8.96-9.77 11.84-13.35 2.87-3.58 7.76-10.33 10.87-15 3.1-4.67 6.68-10.3 7.95-12.5 1.26-2.2 4.05-7.6 6.19-12 2.15-4.4 5.23-11.37 6.86-15.5 1.63-4.12 4.35-12.23 6.03-18 1.68-5.77 3.78-14.77 4.65-20 0.87-5.23 1.91-16.33 2.29-24.68l0.71-15.17c-4.31-4.48-6.01-5.19-8.63-5.18-2.05 0.02-4.62 0.85-5.91 1.92zm67.67 0.36c-2.13 2.09-2.33 3.35-2.92 18.25-0.34 8.8-1.52 21.4-2.61 28-1.09 6.6-3.08 16.73-4.44 22.5-1.35 5.77-3.69 14.33-5.21 19-1.51 4.67-4.44 12.77-6.5 18-2.07 5.23-6.5 14.79-9.85 21.25-3.36 6.46-7.83 14.56-9.93 18-2.11 3.44-6.42 9.85-9.57 14.25-3.15 4.4-9.41 12.46-13.91 17.91-4.51 5.45-12.69 14.06-18.19 19.14-5.5 5.08-13.83 12.18-18.5 15.78-4.67 3.6-9.62 7.39-11 8.43-1.37 1.04-7.22 4.73-13 8.21-5.78 3.49-15.9 8.77-22.5 11.74-7.72 3.49-13.02 6.55-14.87 8.6-2.33 2.58-2.75 3.76-2.23 6.19 0.36 1.65 1.43 3.82 2.38 4.83 1.07 1.14 3.24 1.87 5.72 1.93 3.1 0.08 7.79-1.75 20.75-8.08 9.27-4.53 22.22-11.89 29-16.48 6.74-4.57 13.33-9.18 14.65-10.25 1.32-1.07 6.95-5.82 12.5-10.54 5.56-4.73 14.82-13.51 20.6-19.52 5.78-6 13.2-14.51 16.5-18.9 3.3-4.39 9.08-12.71 12.85-18.49 3.77-5.77 10.61-18.15 15.19-27.5 4.58-9.35 9.91-21.27 11.85-26.5 1.93-5.23 5.29-15.58 7.45-23 2.17-7.42 5.09-20.92 6.49-30 1.4-9.08 2.8-19.2 3.11-22.5 0.3-3.3 0.6-10.95 0.65-17 0.09-10.64 0.01-11.07-2.5-13.25-1.64-1.42-3.89-2.25-6.14-2.25-2.33 0-4.32 0.77-5.82 2.25zm50.34-0.37c-2.13 1.76-2.33 2.93-3.01 17.25-0.4 8.46-1.04 18.29-1.42 21.87-0.38 3.58-1.57 11.67-2.63 18-1.06 6.33-2.42 13.75-3.01 16.5-0.59 2.75-2.65 10.62-4.57 17.5-1.91 6.87-4.52 15.42-5.8 19-1.28 3.58-3.99 10.55-6.03 15.5-2.04 4.95-6.27 14.17-9.41 20.5-3.13 6.33-7.68 14.87-10.11 19-2.43 4.12-7.33 11.77-10.89 17-3.56 5.23-8.87 12.65-11.79 16.5-2.92 3.85-10.15 12.17-16.06 18.5-5.9 6.33-14.94 15.33-20.08 20-5.13 4.67-9.86 8.95-10.5 9.5-0.64 0.56-3.41 2.85-6.16 5.11-2.75 2.25-9.28 7.03-14.5 10.62-5.22 3.58-10.85 7.26-12.5 8.17-1.65 0.91-4.58 2.61-6.5 3.78-1.92 1.16-8 4.47-13.5 7.35-5.5 2.88-13.6 6.72-18 8.55-4.4 1.83-9.01 4.36-10.25 5.62-1.47 1.5-2.25 3.52-2.25 5.8 0 2.17 0.76 4.26 2 5.5 1.17 1.17 3.36 2.01 5.25 2.02 1.79 0.01 5.28-0.68 7.75-1.54 2.47-0.87 6.97-2.71 10-4.11 3.03-1.4 8.2-3.91 11.5-5.58 3.3-1.67 8.92-4.64 12.5-6.6 3.58-1.95 11-6.48 16.5-10.06 5.5-3.57 13.83-9.42 18.5-12.98 4.67-3.57 10.96-8.55 13.97-11.07 3.01-2.52 9.94-8.85 15.39-14.08 5.46-5.23 14.5-14.9 20.09-21.5 5.59-6.6 12.19-14.7 14.68-18 2.48-3.3 6.52-8.92 8.98-12.5 2.45-3.58 6.54-9.88 9.08-14 2.55-4.13 7.27-12.67 10.49-19 3.22-6.33 7.07-14.2 8.55-17.5 1.48-3.3 4.45-10.73 6.6-16.5 2.15-5.77 5.09-14.1 6.53-18.5 1.45-4.4 3.78-12.95 5.18-19 1.39-6.05 3.22-14.38 4.05-18.5 0.82-4.13 2.39-13.8 3.49-21.5 1.09-7.7 2.28-20.52 2.64-28.5l0.67-14.5c-4.72-4.81-6.36-5.5-9.27-5.5-2.32 0-4.79 0.75-6.15 1.88z"/>
		<path id="Path 7" class="s1" d="m697.5 324.38c-2.75 0.73-7.36 2.3-10.25 3.48-2.89 1.17-8.03 4.05-11.42 6.39-3.39 2.34-8.25 6.73-10.79 9.75-2.55 3.02-6.79 10-9.44 15.5-2.64 5.5-7.94 16.98-11.78 25.5-3.84 8.52-8.81 19.55-11.04 24.5-2.24 4.95-5.35 11.81-6.92 15.25-1.57 3.44-4.16 9.06-5.75 12.5-1.58 3.44-4.78 10.75-7.11 16.25-2.32 5.5-4.55 10.45-4.95 11-0.4 0.55-2.03 4-3.64 7.67l-2.91 6.68c4.46 5.15 7.27 8.34 9.13 10.4 1.85 2.06 3.71 3.76 4.12 3.77 0.41 0.01 2.1-0.62 3.75-1.4 1.65-0.78 16.72-7.7 33.5-15.37 16.78-7.67 39.72-18.11 51-23.2 11.28-5.09 24.78-11.27 30-13.74 5.22-2.47 11.27-5.92 13.44-7.65 2.17-1.74 5.29-4.51 6.94-6.16 1.65-1.65 4.73-5.48 6.84-8.5 2.12-3.02 5.27-8.87 7.01-13 3.01-7.12 3.17-8.16 3.18-20.5 0.01-12.08-0.19-13.49-2.89-20-1.6-3.85-4.48-9.48-6.41-12.5-1.93-3.02-5.16-7.3-7.17-9.5-2.01-2.2-6.54-5.91-10.05-8.24-3.52-2.33-9.77-5.42-13.89-6.87-5.66-1.98-9.96-2.71-17.5-2.98-6.29-0.23-11.86 0.13-15 0.97z"/>
		<path id="Path 8" class="s2" d="m699.88 356.83c-2 0.92-5.37 3.06-7.5 4.76-2.14 1.7-5.21 5.53-6.84 8.5-2.54 4.63-2.97 6.49-2.97 12.91-0.01 5.98 0.49 8.51 2.46 12.47 1.36 2.74 4.05 6.47 5.97 8.31 1.92 1.83 5.3 4.2 7.5 5.25 2.2 1.06 6.25 2.22 9 2.57 3.52 0.46 6.92 0.11 11.5-1.19 5.13-1.46 7.45-2.81 11-6.41 2.47-2.5 5.4-6.34 6.5-8.52 1.5-3 2-5.96 1.99-11.98 0-6.55-0.45-8.88-2.5-12.87-1.37-2.68-4.18-6.39-6.24-8.25-2.06-1.86-5.78-4.28-8.25-5.38-3.15-1.4-6.52-1.98-11.25-1.92-4.03 0.05-8.21 0.75-10.37 1.75z"/>
	</g>
</svg>